<svg width="33" height="33" viewBox="0 0 33 33" fill="none" xmlns="http://www.w3.org/2000/svg">
<path d="M16.5 32.75C7.52537 32.75 0.25 25.4746 0.25 16.5C0.25 7.52537 7.52537 0.25 16.5 0.25C25.4746 0.25 32.75 7.52537 32.75 16.5C32.7402 25.4705 25.4705 32.7402 16.5 32.75ZM16.5 3.5C9.3203 3.5 3.5 9.3203 3.5 16.5C3.5 23.6797 9.3203 29.5 16.5 29.5C23.6797 29.5 29.5 23.6797 29.5 16.5C29.4919 9.32364 23.6764 3.50806 16.5 3.5ZM16.5 26.25C13.9325 26.2934 11.5057 25.08 10 23C9.26887 22.0222 8.71854 20.9216 8.375 19.75H24.625C24.625 19.75 24.625 19.75 24.625 19.763C24.2762 20.9285 23.7262 22.024 23 23C21.4941 25.0798 19.0674 26.2932 16.5 26.25ZM10.8125 16.5C9.46631 16.5 8.375 15.4087 8.375 14.0625C8.375 12.7163 9.46631 11.625 10.8125 11.625C12.1587 11.625 13.25 12.7163 13.25 14.0625C13.25 15.4087 12.1587 16.5 10.8125 16.5ZM22.1761 16.4772C20.8362 16.4772 19.75 15.391 19.75 14.0511C19.75 12.7112 20.8362 11.625 22.1761 11.625C23.516 11.625 24.6022 12.7112 24.6022 14.0511C24.6005 15.3903 23.5153 16.4755 22.1761 16.4772Z" fill="#2E3A59"/>
</svg>
