<svg xmlns="http://www.w3.org/2000/svg" width="33" height="33" fill="none"><rect id="backgroundrect" width="100%" height="100%" x="0" y="0" fill="none" stroke="none"/>

<g class="currentLayer" style=""><title>Layer 1</title><path d="M16.5 32.75C7.52537 32.75 0.25 25.4746 0.25 16.5C0.25 7.52537 7.52537 0.25 16.5 0.25C25.4746 0.25 32.75 7.52537 32.75 16.5C32.7402 25.4705 25.4705 32.7402 16.5 32.75ZM16.5 3.5C9.3203 3.5 3.5 9.3203 3.5 16.5C3.5 23.6797 9.3203 29.5 16.5 29.5C23.6797 29.5 29.5 23.6797 29.5 16.5C29.4919 9.32364 23.6764 3.50806 16.5 3.5ZM13.25 26.25C13.2273 26.25 13.0225 26.2419 11.625 26.2419H10V26.2029C10 26.185 10 26.1623 10 26.1346C10 26.081 10 26.0079 10.0114 25.9185C10.0293 25.6764 10.0569 25.4456 10.0959 25.2165C10.2176 24.4767 10.4475 23.7589 10.7784 23.0861C11.2301 22.1572 11.9197 21.3644 12.7771 20.7884L12.7999 20.7738L12.8259 20.7542L12.8503 20.7412H12.86H12.8714H12.8795H12.8909L12.9087 20.7299C13.9891 20.0702 15.2343 19.7304 16.5 19.75C17.8156 19.715 19.1116 20.0744 20.2213 20.7819C21.0779 21.3588 21.7673 22.1513 22.22 23.0796C22.5521 23.7518 22.7816 24.4699 22.9009 25.21C22.9529 25.5155 22.9756 25.7609 22.9854 25.912C22.9854 25.9835 22.9951 26.055 22.9967 26.1281C22.9967 26.1558 22.9967 26.1785 22.9967 26.1964V26.2289C22.9967 26.2289 22.9317 26.2289 21.3717 26.2289C19.8995 26.2289 19.7467 26.2289 19.7467 26.2289C19.7467 26.2289 19.7467 26.1818 19.7467 26.133C19.7467 26.0436 19.7256 25.9055 19.6964 25.7332C19.6282 25.3121 19.499 24.9032 19.3129 24.5194C19.1116 24.0974 18.8028 23.7359 18.4175 23.4713C17.8384 23.1295 17.1716 22.9656 16.5 23C15.8268 22.9705 15.1598 23.14 14.5825 23.4875C14.1977 23.7528 13.889 24.1141 13.6871 24.5356C13.5013 24.9196 13.3721 25.3285 13.3036 25.7495C13.2806 25.8818 13.2643 26.0153 13.2549 26.1493C13.2549 26.1947 13.2549 26.2273 13.2549 26.2435H13.25V26.25ZM10.8125 16.5C9.46631 16.5 8.375 15.4087 8.375 14.0625C8.375 12.7163 9.46631 11.625 10.8125 11.625C12.1587 11.625 13.25 12.7163 13.25 14.0625C13.25 15.4087 12.1587 16.5 10.8125 16.5ZM22.1761 16.4772C20.8362 16.4772 19.75 15.391 19.75 14.0511C19.75 12.7112 20.8362 11.625 22.1761 11.625C23.516 11.625 24.6022 12.7112 24.6022 14.0511C24.6005 15.3903 23.5153 16.4755 22.1761 16.4772Z" fill="#d50b0b" id="svg_1" class="" fill-opacity="1"/></g></svg>