<svg width="139" height="88" viewBox="0 0 139 88" fill="none" xmlns="http://www.w3.org/2000/svg">
<path d="M116.6 46.8L116.6 0L-3.05176e-05 -5.09675e-06L-3.25633e-05 46.8L116.6 46.8Z" fill="#FFFC3E"/>
<path d="M138.1 88L42.1 88L42.1 40L112.1 40L116.5 40L138.1 40L138.1 88Z" fill="#FFFC3E"/>
<path d="M33.3 14.4L33.3 31.8C33.3 33.2 34.1 33.8 35.8 34.1L35.8 35.2L26.2 35.2L26.2 34.1C27.8 33.9 28.7 33.3 28.7 31.8L28.7 25.2C28.7 24.4 28.1 24 27.1 24L19.2 24C18.2 24 17.6 24.4 17.6 25.2L17.6 31.8C17.6 33.2 18.4 33.8 20.2 34.1L20.2 35.2L10.5 35.2L10.5 34.1C12.2 33.9 13 33.3 13 31.8L13 14.4C13 13 12.2 12.5 10.5 12.2L10.5 11.1L20.2 11.1L20.2 12.2C18.4 12.4 17.6 12.9 17.6 14.4L17.6 21.2C17.6 22.2 18.2 22.5 19.2 22.5L27.1 22.5C28.1 22.5 28.7 22.1 28.7 21.2L28.7 14.4C28.7 13 27.7 12.5 26.2 12.2L26.2 11.1L35.8 11.1L35.8 12.2C34.2 12.5 33.3 13 33.3 14.4Z" fill="#071717"/>
<path d="M33.3 14.4L33.8 14.4L33.8 31.7999C33.8 32.5 33.9 32.7999 34.3 33.0999C34.5 33.2999 35.1 33.4999 36 33.5999L36.4 33.7L36.4 35.5L25.8 35.4999L25.8 33.7L26.2 33.5999C27 33.4999 27.6 33.3999 27.9 33.0999C28.3 32.6999 28.4 32.5 28.4 31.7999L28.4 25.2C28.4 24.8 28.3 24.7 28.2 24.6C28.1 24.5 27.7 24.4 27.4 24.4L19.5 24.4C19.1 24.4 18.8 24.5 18.7 24.6C18.6 24.7 18.5 24.8 18.5 25.2L18.5 31.7999C18.5 32.4999 18.6 32.7999 19 33.0999C19.2 33.2999 19.8 33.4999 20.7 33.5999L21.1 33.7L21.1 35.4999L10.5 35.4999L10.5 33.7L10.9 33.5999C11.7 33.4999 12.3 33.3999 12.6 33.0999C13 32.6999 13.2 32.4999 13.2 31.7999L13.2 14.3999C13.2 13.6999 13 13.4 12.6 13.2C12.4 12.8 11.8 12.7 10.9 12.6L10.5 12.6L10.5 10.7L21.1 10.7L21.1 12.6L20.7 12.6C19.9 12.7 19.3 12.8 19 13.2C18.6 13.4 18.5 13.7 18.5 14.4L18.5 21.2C18.5 21.6 18.6 21.7999 18.7 21.9C18.8 22 19.2 22 19.5 22L27.4 22C27.8 22 28.1 22 28.2 21.9C28.4 21.8 28.4 21.5 28.4 21.2L28.4 14.4C28.4 13.7 28.3 13.4 27.9 13.2C27.7 12.8 27.1 12.7 26.2 12.6L25.8 12.6L25.8 10.7L36.4 10.7L36.4 12.6L36 12.6C35.2 12.7 34.6 12.8 34.3 13.2C33.9 13.4 33.8 13.7 33.8 14.4L33.3 14.4L32.9 14.4C32.9 13.6 33.1 13 33.6 12.5C34.2 12.1 34.9 11.9 35.8 11.8L35.8 12.3L35.4 12.3L35.4 11.6L26.5 11.6L26.5 12.3L26.1 12.3L26.1 11.8C26.9 11.9 27.7 12.2 28.1 12.5C28.7 13 28.9 13.6 28.9 14.4L28.9 21.2C28.9 21.8 28.8 22.3 28.3 22.5C27.9 22.7 27.5 22.9 27 22.9L19.1 22.9C18.6 22.9 18.1 22.8 17.8 22.5C17.4 22.3 17.2 21.8 17.2 21.2L17.2 14.4C17.2 13.6 17.4 13 18 12.5C18.5 12.1 19.2 11.9 20 11.8L20.1 12.3L19.6 12.3L19.6 11.6L10.7 11.6L10.7 12.3L10.3 12.3L10.3 11.8C11.1 11.9 11.9 12.2 12.5 12.5C13 13 13.3 13.6 13.2 14.3999L13.2 31.7999C13.3 32.5999 13 33.2 12.5 33.7C11.9 34.0999 11.2 34.3 10.3 34.4L10.3 33.9999L10.7 33.9999L10.7 34.5999L19.6 34.5999L19.6 33.9999L20.1 33.9999L20 34.4C19.2 34.3 18.4 33.9999 18 33.7C17.4 33.2 17.2 32.5999 17.2 31.7999L17.2 25.2C17.2 24.7 17.4 24.2 17.8 23.9C18.2 23.7 18.6 23.5 19.1 23.5L27 23.5C27.5 23.5 28 23.6 28.3 23.9C28.8 24.3 28.9 24.7 28.9 25.2L28.9 31.7999C28.9 32.5999 28.7 33.2 28.1 33.7C27.6 34.1 26.9 34.3 26.1 34.4L26.1 33.9999L26.5 33.9999L26.5 34.5999L35.4 34.5999L35.4 34L35.8 34L35.8 34.4C35 34.3 34.2 34 33.6 33.7C33.1 33.2 32.9 32.5999 32.9 31.7999L32.9 14.4L33.3 14.4Z" fill="#071717"/>
<path d="M37.8 31.1C37.8 28 40.3 26.1 48.4 25C49.2 24.9 49.6 24.6 49.6 23.7L49.6 23C49.6 20.2 48.5 18.7 46.1 18.7C43.9 18.7 43.2 19.8 43.2 21.5C43.2 23.1 42.1 23.8 40.9 23.8C39.7 23.8 39 23 39 21.8C39 18.8 43.2 17.5 47.2 17.5C51.8 17.5 53.7 19.4 53.7 24.3L53.7 32C53.7 33.3 54.4 33.7 55.5 33.4L55.5 34C55 34.8 53.8 35.3 52.7 35.3C50.8 35.3 49.7 34.1 49.6 32.5C49.6 32 49.2 32 49 32.4C47.8 34 45.6 35.3 43 35.3C40.3 35.4 37.8 34.1 37.8 31.1ZM49.5 28.7L49.5 27.4C49.5 26.6 49.1 26.1 47.9 26.2C43.1 26.7 42 28.6 42 30.3C42 31.9 42.8 33.2 45 33.2C47.6 33.1 49.5 31.2 49.5 28.7Z" fill="#071717"/>
<path d="M37.8 31.1L37.4 31.1C37.4 29.4 38.1 28 39.8 26.9C41.6 25.8 44.2 25.1 48.2 24.5C48.7 24.5 48.8 24.4 48.9 24.4C49.1 24.2 49.1 24.1 49.1 23.6L49.1 22.9C49.1 21.6 48.9 20.6 48.4 20C47.9 19.3 47.2 19 46.1 19C45 19 44.5 19.2 44.2 19.6C43.8 20 43.6 20.6 43.6 21.3C43.6 22.1 43.4 22.9 42.8 23.3C42.3 23.7 41.7 23.9 41 23.9C40.3 23.9 39.7 23.7 39.3 23.2C38.8 22.8 38.6 22.2 38.6 21.5C38.6 19.8 39.9 18.6 41.5 17.9C43.1 17.3 45.1 16.9 47.1 16.9C49.4 16.9 51.2 17.4 52.3 18.6C53.5 19.8 54 21.6 54 24.1L54 32C54 32.5 54.1 32.7 54.2 32.8C54.3 33 54.4 33 54.8 33C54.9 33 55.2 33 55.3 33L55.8 33L55.8 34.2C55.2 35.4 53.9 35.8 52.7 35.8C51.6 35.8 50.8 35.4 50.2 35C49.6 34.4 49.2 33.6 49.2 32.7C49.2 32.7 49.2 32.7 49.2 32.6L49.2 32.7C49.2 32.6 49.2 32.6 49.2 32.6L49.2 32.7L49.3 32.6L49.3 32.7L49.2 32.7L49.3 32.6L49.3 32.7L49.3 32.6L49.4 32.7L49.3 32.7L49.3 32.6L49.4 32.7L49.3 32.8L49.3 32.9C48 34.3 45.7 35.8 42.9 35.8C41.5 35.8 40.1 35.4 39.1 34.7C38.1 34 37.4 32.8 37.4 31.1L37.8 31.1L38.3 31.1C38.3 32.5 38.8 33.4 39.6 34C40.4 34.7 41.6 35 43 35C45.4 35 47.6 33.8 48.6 32.4L49 32.6L48.6 32.4C48.8 32.2 49 32 49.3 32C49.5 31.9 49.8 32.1 49.8 32.2C49.9 32.3 49.9 32.6 49.9 32.7L49.5 32.7L49.9 32.7C50 33.4 50.3 33.9 50.7 34.4C51.1 34.8 51.7 35 52.6 35C53.7 35 54.6 34.6 55 33.9L55.4 34.1L55.1 34.1L55.1 33.5L55.5 33.5L55.6 33.9C55.3 34 55.1 34 54.8 34C54.3 34 53.8 33.9 53.6 33.5C53.3 33.1 53.1 32.6 53.1 32L53.1 24.1C53.1 21.7 52.6 20 51.7 19.2C50.9 18.2 49.4 17.8 47.1 17.8C45.2 17.8 43.1 18.2 41.7 18.8C40.3 19.5 39.3 20.5 39.3 21.7C39.3 22.2 39.4 22.5 39.8 22.9C40 23.1 40.4 23.3 40.9 23.3C41.5 23.3 41.9 23.2 42.2 22.9C42.4 22.5 42.7 22.2 42.7 21.5C42.7 20.7 42.9 19.8 43.5 19.2C44 18.6 44.8 18.4 46 18.4C47.3 18.4 48.3 18.8 49 19.6C49.6 20.4 49.8 21.6 49.8 23.1L49.8 23.8C49.8 24.3 49.8 24.8 49.4 25C49 25.4 48.7 25.5 48.2 25.5C44.2 26.1 41.7 26.8 40.2 27.8C38.6 28.8 38.2 29.8 38.2 31.3L37.8 31.3L37.8 31.1ZM49.5 28.7L49.1 28.7L49.1 27.4C49.1 27 49.1 26.8 49 26.8C49 26.7 48.8 26.6 48.4 26.6C48.3 26.6 48.2 26.6 48 26.6L48 26.2L48 26.6C45.6 26.8 44.3 27.4 43.4 28.2C42.7 28.9 42.4 29.6 42.4 30.4C42.4 31.2 42.6 31.7 43 32.1C43.5 32.6 44.1 32.8 45 32.8C47.3 32.8 49 31.1 49 28.8L49.5 28.8L49.9 28.8C49.9 30.1 49.4 31.3 48.5 32.3C47.7 33.1 46.5 33.6 45.1 33.6C43.9 33.6 43.1 33.2 42.5 32.6C41.9 32 41.7 31.2 41.7 30.3C41.7 29.4 42.1 28.4 43 27.5C44 26.7 45.5 26.1 48 25.7C48.1 25.7 48.2 25.7 48.4 25.7C48.9 25.7 49.4 25.8 49.6 26.2C50 26.6 50 27 50 27.4L50 28.7L49.5 28.7Z" fill="#071717"/>
<path d="M58.5 34.7L58.5 13.9C58.5 12.2 58 11.6 56.1 11.9L56.1 10.8L61 9.8C62.1 9.6 62.6 10 62.6 11L62.6 19C62.6 19.4 63 19.6 63.4 19.1C64.1 18.4 66.2 17.2 68.7 17.2C72.9 17.2 76.4 20.4 76.4 26C76.4 32 72.2 35.4 68 35.4C64.8 35.4 62.8 33.4 61.8 33.4C60.6 33.4 60.1 35.4 59.3 35.4C58.9 35.4 58.5 35 58.5 34.7ZM72.2 27.7C72.2 23.3 70 19.8 66.8 19.8C65 19.8 62.6 20.8 62.6 24.8L62.6 28.2C62.6 32.5 65.6 34.1 67.8 34.1C70.7 34.1 72.2 31.6 72.2 27.7Z" fill="#071717"/>
<path d="M58.5 34.7L58.1 34.7L58.1 13.9C58.1 13.2 58 12.8 57.7 12.6C57.6 12.4 57.2 12.2 56.6 12.2C56.5 12.2 56.2 12.2 56 12.2L55.5 12.3L55.5 10.4L60.9 9.40005C61 9.30005 61.3 9.30005 61.4 9.30005C61.9 9.30005 62.2 9.40005 62.5 9.80005C62.9 10.2 63 10.5 63 11L63 19L62.9 19.1L62.9 19L63.1 19L63 19.1L63 19C63 19 63.1 19 63.1 18.9L63.2 18.9C64 18.1 66.1 16.9 68.7 16.9C70.9 16.9 72.9 17.7 74.3 19.3C75.9 21 76.7 23.3 76.7 26C76.7 29.1 75.6 31.5 74.1 33.2001C72.4 34.9001 70.3 35.7001 68 35.7C66.3 35.7 64.9 35.2 63.9 34.7C62.8 34.1 62 33.7 61.7 33.7C61.5 33.7 61.3 33.7 61.2 33.9001C60.8 34.0001 60.6 34.5001 60.4 34.9001C60.2 35.1001 59.8 35.6 59.2 35.6C58.9999 35.6 58.6 35.5 58.5 35.2C58.3 35.1 58.1 34.7 58.1 34.5L58.5 34.5L59 34.5C59 34.6 59.0999 34.7 59.2 34.7C59.2 34.7 59.3 34.7 59.6 34.6C59.7 34.4 60.0999 33.9 60.2999 33.5C60.6999 33.4 61.0999 33 61.7999 33C62.4999 33 63.2 33.5 64.2 34C65.3 34.5 66.5 35 68 35C72.1 35 75.9 32 75.9 26.1C75.9 20.8 72.7 17.8 68.7 17.8C66.3 17.8 64.4 18.9 63.7 19.6L63.5 19.2L63.9 19.6C63.7 19.8 63.4 20 63.1 20C62.9 20 62.6 19.9 62.5 19.6C62.4 19.5 62.4 19.2 62.4 19.1L62.4 11.1C62.4 10.7 62.3 10.6 62.2 10.5C62.1 10.4 62 10.3 61.7 10.3C61.6 10.3 61.4999 10.3 61.2999 10.3L56.6 11.3L56.6 12L56.1 12L56 11.5C56.2 11.5 56.5 11.5 56.7 11.5C57.4 11.5 58 11.6 58.5 12.1C58.9 12.6 59 13.3 59 14L59 34.8L58.5 34.8L58.5 34.7ZM72.2 27.7001L71.7999 27.7001C71.7999 25.5 71.2 23.6 70.4 22.3C69.4 21 68.1999 20.3 66.7999 20.1C65.9999 20.1 64.9999 20.3 64.2999 21.1C63.5999 21.7 63.1 22.9 63.1 24.8L63.1 28.2C63.1 30.2 63.7 31.6001 64.7 32.4001C65.7 33.2 66.8999 33.6 67.7999 33.6C69.0999 33.6 70.0999 33.1 70.7999 32C71.3999 31 71.9 29.5 71.9 27.7001L72.2 27.7001L72.7 27.7001C72.7 29.6 72.2 31.3 71.4 32.5C70.7 33.7001 69.3999 34.4001 67.7999 34.4001C66.5999 34.4001 65.3 34 64.2 33.1C63 32 62.2999 30.5 62.2999 28.2L62.2999 24.8C62.2999 22.8 62.9 21.3 63.7 20.5C64.7 19.7 65.8999 19.4 66.7999 19.4C68.5999 19.4 70 20.4 71.1 21.8C72.1 23.4 72.7 25.4001 72.7 27.7001L72.2 27.7001Z" fill="#071717"/>
<path d="M80.3 32L80.3 13.9C80.3 12.2 79.7 11.6 77.8 11.9L77.8 10.8L82.8 9.8C83.8 9.6 84.4 10 84.4 11L84.4 32C84.4 33.3 85.1 33.7 86.2 33.4L86.2 34C85.7 34.8 84.5 35.3 83.4 35.3C81.6 35.4 80.3 34.3 80.3 32Z" fill="#071717"/>
<path d="M80.3 32L79.8 32L79.8 13.9C79.8 13.2 79.7 12.8 79.6 12.6C79.4 12.4 79.1 12.2 78.4 12.2C78.3 12.2 78 12.2 77.9 12.2L77.4 12.3L77.4 10.4L82.7 9.40005C82.8 9.30005 83.1 9.30005 83.2 9.30005C83.7 9.30005 84 9.40005 84.4 9.80005C84.6 10.2 84.8 10.5 84.8 11L84.8 32C84.8 32.5 84.9 32.7 85 32.8C85.1 33 85.2 33 85.6 33C85.7 33 86 33 86.1 33L86.5 33L86.5 34.2001C85.9 35.4001 84.6 35.8 83.4 35.8C82.4 35.8 81.5 35.6 80.9 34.8C80.2 34.2 79.8 33.2001 79.8 32L80.3 32L80.7 32C80.7 33.1 81.1 33.8001 81.5 34.2001C81.9 34.7001 82.6 34.9001 83.4 34.9001C84.5 34.9001 85.4 34.5 85.8 33.8L86.2 34L85.8 34L85.8 33.4001L86.1 33.4001L86.2 33.8C86 33.9 85.7 33.9001 85.5 33.9001C85 33.9001 84.5 33.8001 84.3 33.4001C83.9 33.0001 83.8 32.6 83.8 32L83.8 11C83.8 10.6 83.7 10.5 83.7 10.4C83.6 10.3 83.5 10.2 83.1 10.2C83 10.2 82.9 10.2 82.7 10.2L78.1 11.2L78.1 11.9L77.6 11.9L77.6 11.4C77.8 11.4 78.1 11.4 78.2 11.4C79 11.4 79.6 11.5 80 12C80.4 12.5 80.5 13.2 80.5 13.9L80.5 32L80.3 32Z" fill="#071717"/>
<path d="M88.4 31.1C88.4 28 90.9 26.1 98.8 25C99.6 24.9 100 24.6 100 23.7L100 23C100 20.2 98.9 18.7 96.5 18.7C94.3 18.7 93.6 19.8 93.6 21.5C93.6 23.1 92.5 23.8 91.3 23.8C90.1 23.8 89.4 23 89.4 21.8C89.4 18.8 93.6 17.5 97.6 17.5C102.2 17.5 104.1 19.4 104.1 24.3L104.1 32C104.1 33.3 104.8 33.7 105.9 33.4L105.9 34C105.4 34.8 104.2 35.3 103.1 35.3C101.2 35.3 100.1 34.1 100 32.5C100 32 99.8 32 99.4 32.4C98.2 34 96 35.3 93.4 35.3C90.8 35.3 88.4 34.1 88.4 31.1ZM100.1 28.7L100.1 27.4C100.1 26.6 99.9 26.1 98.5 26.2C93.7 26.7 92.6 28.6 92.6 30.3C92.6 31.9 93.6 33.2 95.6 33.2C98.1 33.1 100.1 31.2 100.1 28.7Z" fill="#071717"/>
<path d="M88.4 31.1L87.9 31.1C87.9 29.4 88.6 28 90.4 26.9C92.1 25.8 94.7 25.1 98.8 24.5C99.2 24.5 99.4 24.4 99.4 24.4C99.5 24.3 99.6 24.2 99.6 23.7L99.6 23C99.6 21.7 99.2 20.7 98.8 20.1C98.3 19.4 97.6 19.1 96.5 19.1C95.5 19.1 94.9 19.3 94.6 19.7C94.2 20.1 94 20.7 94 21.4C94 22.2 93.8 23 93.3 23.4C92.8 23.8 92.1 24 91.4 24C90.7 24 90.1 23.8 89.7 23.3C89.2 22.9 89.1 22.3 89.1 21.6C89.1 19.9 90.3 18.7 91.9 18C93.6 17.3 95.6 16.9 97.7 16.9C100.1 16.9 101.8 17.4 103 18.6C104.1 19.8 104.6 21.6 104.6 24.1L104.6 32C104.6 32.5 104.7 32.7 104.8 32.8C104.9 33 105.2 33 105.4 33C105.5 33 105.8 33 105.9 33L106.4 33L106.4 34.2L106.3 34.2C105.7 35.4 104.4 35.8 103.2 35.8C102.1 35.8 101.3 35.4 100.7 35C100.1 34.4 99.7 33.6 99.7 32.7C99.7 32.7 99.7 32.7 99.7 32.6L99.7 32.7C99.7 32.6 99.7 32.6 99.7 32.6L99.7 32.7L99.8 32.6L99.8 32.7L99.7 32.7L99.8 32.6L99.8 32.7L99.8 32.6L99.9 32.7C99.9 32.7 99.9 32.7 99.8 32.7L99.8 32.6L99.9 32.7L99.8 32.8L99.8 32.9C98.5 34.3 96.2 35.8 93.4 35.8C92 35.8 90.6 35.4 89.7 34.7C88.6 34 87.9 32.8 87.9 31.1L88.4 31.1L88.8 31.1C88.8 32.5 89.4 33.4 90.2 34C91 34.7 92.1 35 93.4 35C95.9 35 98 33.8 99.2 32.4L99.4 32.6L99.1 32.3C99.3 32.1 99.6 31.9 99.8 31.9C100 31.8 100.3 32 100.4 32.1C100.4 32.2 100.5 32.5 100.5 32.6L100.1 32.6L100.6 32.6C100.6 33.3 100.8 33.8 101.3 34.3C101.7 34.7 102.3 34.9 103.2 34.9C104.3 34.9 105.2 34.5 105.6 33.8L106 34L105.6 34L105.6 33.4L106 33.4L106.1 33.8C105.9 33.9 105.6 33.9 105.4 33.9C104.9 33.9 104.4 33.8 104.2 33.4C103.8 33 103.7 32.6 103.7 32L103.7 24.1C103.7 21.7 103.2 20 102.4 19.2C101.4 18.2 100 17.8 97.7 17.8C95.8 17.8 93.7 18.2 92.3 18.8C90.9 19.5 89.9 20.5 89.9 21.7C89.9 22.2 90.1 22.5 90.4 22.9C90.6 23.1 91 23.3 91.5 23.3C92.1 23.3 92.6 23.2 92.8 22.9C93.2 22.5 93.3 22.2 93.3 21.5C93.3 20.7 93.5 19.8 94.1 19.2C94.6 18.6 95.5 18.4 96.6 18.4C97.9 18.4 98.9 18.8 99.6 19.6C100.2 20.4 100.4 21.6 100.4 23.1L100.4 23.8C100.4 24.3 100.4 24.8 100 25C99.8 25.4 99.3 25.5 98.8 25.5C94.8 26.1 92.3 26.8 90.8 27.8C89.4 28.8 88.8 29.8 88.8 31.3L88.4 31.3L88.4 31.1ZM100.1 28.7L99.7 28.7L99.7 27.4C99.7 27 99.6 26.8 99.5 26.8C99.5 26.7 99.4 26.6 98.9 26.6C98.8 26.6 98.7 26.6 98.5 26.6L98.5 26.2L98.5 26.6C96.2 26.8 94.8 27.4 94.1 28.2C93.3 28.9 93 29.6 93 30.4C93 31.2 93.2 31.7 93.6 32.1C94.1 32.6 94.7 32.8 95.6 32.8C97.9 32.8 99.6 31.1 99.7 28.8L100.1 28.8L100.5 28.8C100.5 30.1 100 31.3 99.2 32.3C98.2 33.1 97 33.6 95.7 33.6C94.6 33.6 93.7 33.2 93.1 32.6C92.6 32 92.3 31.2 92.3 30.3C92.3 29.4 92.7 28.4 93.6 27.5C94.6 26.7 96.1 26.1 98.6 25.7C98.7 25.7 98.8 25.7 99 25.7C99.6 25.7 100 25.8 100.3 26.2C100.5 26.6 100.5 27 100.5 27.4L100.5 28.7L100.1 28.7Z" fill="#071717"/>
<path d="M23.7 70.6L0.099952 70.6L0.0999527 54L2.99995 54L2.99995 67.6L23.7 67.6L23.7 70.6Z" fill="black"/>
<path d="M23 58L21.6 58C21.8 60.6 22 64.6 22 69C22 73.4 21.9 77.4 21.6 80.2L23 80.2C23 80.2 25.3 71.8 32.6 69.6L32.6 69L32.6 68.5C25.3 66.2 23 58 23 58Z" fill="black"/>
<path d="M54.9 77.2L60.2 77.2L60.2 67.3L70.4 67.3L70.4 63.1L60.2 63.1L60.2 56.4L71.4 56.4L71.4 52.1L54.9 52.1L54.9 77.2Z" fill="#071717"/>
<path d="M77.6 71.5C77.6 70.2 78.6 69.3 80.5 69.2L84.3 69L84.3 70.3C84.3 72.2 82.7 73.7 80.5 73.7C78.7 73.7 77.6 73 77.6 71.5ZM78.8 77.4C81.2 77.4 83.2 76.3 84.3 74.4L84.3 77.2L89.5 77.2L89.5 64.4C89.5 60.6 86.4 58.2 81.6 58.2C76.7 58.2 73.7 60.6 73.4 64.1L73.4 64.3L78 64.3L78.1 64.1C78.3 62.9 79.4 62.1 81.3 62.1C83.2 62.1 84.3 63.1 84.3 64.7L84.3 65.9L79.7 66.1C75.1 66.3 72.5 68.4 72.5 71.7C72.6 75.1 75.1 77.4 78.8 77.4ZM82.7 56.4L87 50.5L82.4 50.5L79.3 56.4L82.7 56.4Z" fill="#071717"/>
<path d="M101.3 77.5C106.2 77.5 109.5 74.4 109.7 70.3L104.9 70.3L104.9 70.4C104.5 72.2 103.3 73.5 101.3 73.5C98.8 73.5 97.1999 71.5 97.1999 67.7C97.1999 64.2 98.8 62.1 101.3 62.1C103.3 62.1 104.5 63.4 104.9 65.2L104.9 65.3L109.7 65.3L109.7 65.2C109.5 61.2 106.2 58.1 101.2 58.1C95.6999 58.1 92.1 61.7 92.1 67.7C92.1 73.7 95.5 77.5 101.3 77.5Z" fill="#071717"/>
<path d="M112.2 77.2L117.2 77.2L117.2 58.6L112.2 58.6L112.2 77.2ZM114.7 56.2C116.3 56.2 117.5 55 117.5 53.6C117.5 52.2 116.3 51 114.7 51C113.1 51 112.1 52.2 112.1 53.6C112.1 55 113.1 56.2 114.7 56.2Z" fill="#071717"/>
<path d="M125.9 77.2L125.9 52.1L120.7 52.1L120.7 77.2L125.9 77.2Z" fill="#071717"/>
</svg>
