<svg width="65" height="38" viewBox="0 0 65 38" fill="none" xmlns="http://www.w3.org/2000/svg">
<path d="M54.8805 20.2091L54.8805 0L-2.67029e-05 -2.36475e-06L-2.7599e-05 20.2091L54.8805 20.2091Z" fill="#FFFA52"/>
<path d="M65 38L19.8154 38L19.8154 17.2727L52.7625 17.2727L54.8335 17.2727L65 17.2727L65 38Z" fill="#FFFA52"/>
<path d="M15.6734 6.21821L15.6734 13.7318C15.6734 14.3364 16.05 14.5955 16.8501 14.725L16.8501 15.2L12.3316 15.2L12.3316 14.725C13.0847 14.6387 13.5083 14.3796 13.5083 13.7318L13.5083 10.8818C13.5083 10.5364 13.2259 10.3637 12.7552 10.3637L9.03692 10.3637C8.56625 10.3637 8.28384 10.5364 8.28384 10.8818L8.28384 13.7318C8.28384 14.3364 8.66038 14.5955 9.50759 14.725L9.50759 15.2L4.94206 15.2L4.94206 14.725C5.74221 14.6387 6.11875 14.3796 6.11875 13.7318L6.11875 6.21821C6.11875 5.61367 5.74221 5.39776 4.94206 5.26821L4.94206 4.79321L9.50759 4.79321L9.50759 5.26821C8.66038 5.35458 8.28384 5.57048 8.28384 6.21821L8.28384 9.15458C8.28384 9.58639 8.56625 9.71594 9.03692 9.71594L12.7552 9.71594C13.2259 9.71594 13.5083 9.54321 13.5083 9.15458L13.5083 6.21821C13.5083 5.61367 13.0376 5.39776 12.3316 5.26821L12.3316 4.79321L16.8501 4.79321L16.8501 5.26821C16.097 5.39776 15.6734 5.61367 15.6734 6.21821Z" fill="#001727"/>
<path d="M15.6734 6.21809L15.9087 6.21809L15.9087 13.7317C15.9087 14.034 15.9558 14.1635 16.144 14.2931C16.2382 14.3794 16.5206 14.4658 16.9442 14.509L17.1324 14.5522L17.1324 15.3295L12.1433 15.3295L12.1433 14.5522L12.3316 14.509C12.7081 14.4658 12.9905 14.4226 13.1317 14.2931C13.32 14.1204 13.3671 14.034 13.3671 13.7317L13.3671 10.8817C13.3671 10.709 13.32 10.6658 13.2729 10.6226C13.2259 10.5795 13.0376 10.5363 12.8964 10.5363L9.17807 10.5363C8.9898 10.5363 8.84859 10.5795 8.80153 10.6226C8.75446 10.6658 8.70739 10.709 8.70739 10.8817L8.70739 13.7317C8.70739 14.034 8.75446 14.1635 8.94273 14.2931C9.03686 14.3794 9.31927 14.4658 9.74287 14.509L9.93114 14.5522L9.93114 15.3295L4.94201 15.3295L4.94201 14.5522L5.13028 14.509C5.50681 14.4658 5.78922 14.4226 5.93042 14.2931C6.11869 14.1204 6.21282 14.034 6.21282 13.7317L6.21282 6.21809C6.21282 5.91582 6.11869 5.78627 5.93042 5.69991C5.83628 5.52718 5.55388 5.484 5.13028 5.44082L4.94201 5.44082L4.94201 4.62036L9.93114 4.62036L9.93114 5.44082L9.74287 5.44082C9.36633 5.484 9.08393 5.52718 8.94273 5.69991C8.75446 5.78627 8.70739 5.91582 8.70739 6.21809L8.70739 9.15445C8.70739 9.32718 8.75446 9.41354 8.80153 9.45672C8.84859 9.49991 9.03686 9.49991 9.17807 9.49991L12.8964 9.49991C13.0847 9.49991 13.2259 9.49991 13.2729 9.45672C13.3671 9.41354 13.3671 9.284 13.3671 9.15445L13.3671 6.21809C13.3671 5.91582 13.32 5.78627 13.1317 5.69991C13.0376 5.52718 12.7552 5.484 12.3316 5.44082L12.1433 5.44082L12.1433 4.62036L17.1324 4.62036L17.1324 5.44082L16.9442 5.44082C16.5676 5.484 16.2852 5.52718 16.144 5.69991C15.9558 5.78627 15.9087 5.91582 15.9087 6.21809L15.6734 6.21809L15.4851 6.21809C15.4851 5.87263 15.5792 5.61354 15.8146 5.39763C16.097 5.22491 16.4264 5.13854 16.85 5.09536L16.85 5.31127L16.6618 5.31127L16.6618 5.009L12.4728 5.009L12.4728 5.31127L12.2845 5.31127L12.2845 5.09536C12.661 5.13854 13.0376 5.26809 13.2259 5.39763C13.5083 5.61354 13.6024 5.87263 13.6024 6.21809L13.6024 9.15445C13.6024 9.41354 13.5553 9.62945 13.32 9.71582C13.1317 9.80218 12.9435 9.88854 12.7081 9.88854L8.9898 9.88854C8.75446 9.88854 8.51912 9.84536 8.37792 9.71582C8.18965 9.62945 8.09552 9.41354 8.09552 9.15445L8.09552 6.21809C8.09552 5.87263 8.18965 5.61354 8.47206 5.39763C8.70739 5.22491 9.03686 5.13854 9.4134 5.09536L9.46047 5.31127L9.22513 5.31127L9.22513 5.009L5.03614 5.009L5.03614 5.31127L4.84787 5.31127L4.84787 5.09536C5.22441 5.13854 5.60095 5.26809 5.88335 5.39763C6.11869 5.61354 6.25989 5.87263 6.21282 6.21809L6.21282 13.7317C6.25989 14.0772 6.11869 14.3363 5.88335 14.5522C5.60095 14.7249 5.27148 14.8113 4.84787 14.8545L4.84787 14.6817L5.03614 14.6817L5.03614 14.9408L9.22513 14.9408L9.22513 14.6817L9.46047 14.6817L9.4134 14.8545C9.03686 14.8113 8.66033 14.6817 8.47206 14.5522C8.18965 14.3363 8.09552 14.0772 8.09552 13.7317L8.09552 10.8817C8.09552 10.6658 8.18965 10.4499 8.37792 10.3204C8.56619 10.234 8.75446 10.1476 8.9898 10.1476L12.7081 10.1476C12.9435 10.1476 13.1788 10.1908 13.32 10.3204C13.5553 10.4931 13.6024 10.6658 13.6024 10.8817L13.6024 13.7317C13.6024 14.0772 13.5083 14.3363 13.2259 14.5522C12.9905 14.7249 12.661 14.8113 12.2845 14.8545L12.2845 14.6817L12.4728 14.6817L12.4728 14.9408L16.6618 14.9408L16.6618 14.6817L16.85 14.6817L16.85 14.8545C16.4735 14.8113 16.097 14.6817 15.8146 14.5522C15.5792 14.3363 15.4851 14.0772 15.4851 13.7317L15.4851 6.21809L15.6734 6.21809Z" fill="#001727"/>
<path d="M17.7915 13.4296C17.7915 12.091 18.9682 11.2705 22.7807 10.7955C23.1572 10.7523 23.3455 10.6228 23.3455 10.2342L23.3455 9.93189C23.3455 8.72279 22.8277 8.07507 21.6981 8.07507C20.6626 8.07507 20.3332 8.55007 20.3332 9.28416C20.3332 9.97507 19.8154 10.2773 19.2506 10.2773C18.6858 10.2773 18.3563 9.93188 18.3563 9.4137C18.3563 8.11825 20.3332 7.55688 22.2158 7.55688C24.3809 7.55688 25.2752 8.37734 25.2752 10.4932L25.2752 13.8182C25.2752 14.3796 25.6047 14.5523 26.1224 14.4228L26.1224 14.6819C25.8871 15.0273 25.3223 15.2432 24.8045 15.2432C23.9103 15.2432 23.3925 14.7251 23.3455 14.0342C23.3455 13.8182 23.1572 13.8183 23.0631 13.991C22.4983 14.6819 21.4628 15.2432 20.239 15.2432C18.9682 15.2864 17.7915 14.7251 17.7915 13.4296ZM23.2984 12.3932L23.2984 11.8319C23.2984 11.4864 23.1101 11.2705 22.5453 11.3137C20.2861 11.5296 19.7683 12.3501 19.7683 13.0842C19.7683 13.7751 20.1449 14.3364 21.1804 14.3364C22.4041 14.2932 23.2984 13.4728 23.2984 12.3932Z" fill="#001727"/>
<path d="M17.7914 13.4297L17.6032 13.4297C17.6032 12.6956 17.9326 12.091 18.7328 11.616C19.58 11.141 20.8037 10.8388 22.6864 10.5797C22.9218 10.5797 22.9688 10.5365 23.0159 10.5365C23.11 10.4501 23.11 10.4069 23.11 10.191L23.11 9.88876C23.11 9.3274 23.0159 8.89558 22.7806 8.63649C22.5452 8.33422 22.2158 8.20467 21.698 8.20467C21.1803 8.20467 20.9449 8.29103 20.8037 8.46376C20.6155 8.63649 20.5213 8.89558 20.5213 9.19785C20.5213 9.54331 20.4272 9.88876 20.1448 10.0615C19.9095 10.2342 19.6271 10.3206 19.2976 10.3206C18.9681 10.3206 18.6857 10.2342 18.4974 10.0183C18.2621 9.84558 18.168 9.58649 18.168 9.28422C18.168 8.55012 18.7798 8.03194 19.5329 7.72967C20.286 7.47058 21.2273 7.29785 22.1687 7.29785C23.2512 7.29785 24.0985 7.51376 24.6162 8.03194C25.181 8.55012 25.4163 9.3274 25.4163 10.4069L25.4163 13.8183C25.4163 14.0342 25.4634 14.1206 25.5105 14.1638C25.5575 14.2501 25.6046 14.2501 25.7929 14.2501C25.8399 14.2501 25.9811 14.2501 26.0282 14.2501L26.2635 14.2501L26.2635 14.7683C25.9811 15.2865 25.3693 15.4592 24.8045 15.4592C24.2867 15.4592 23.9102 15.2865 23.6278 15.1138C23.3454 14.8547 23.1571 14.5092 23.1571 14.1206C23.1571 14.1206 23.1571 14.1206 23.1571 14.0774L23.1571 14.1206C23.1571 14.0774 23.1571 14.0774 23.1571 14.0774L23.1571 14.1206L23.2042 14.0774L23.2042 14.1206L23.1571 14.1206L23.2042 14.0774L23.2042 14.1206L23.2042 14.0774L23.2512 14.1206L23.2042 14.1206L23.2042 14.0774L23.2512 14.1206L23.2042 14.1638L23.2042 14.2069C22.5923 14.8115 21.5098 15.4592 20.1919 15.4592C19.5329 15.4592 18.874 15.2865 18.4033 14.9842C17.9326 14.6819 17.6032 14.1638 17.6032 13.4297L17.7914 13.4297L18.0268 13.4297C18.0268 14.0342 18.2621 14.4229 18.6386 14.6819C19.0152 14.9842 19.58 15.1138 20.2389 15.1138C21.3685 15.1138 22.404 14.5956 22.8747 13.991L23.063 14.0774L22.8747 13.991C22.9688 13.9047 23.063 13.8183 23.2042 13.8183C23.2983 13.7751 23.4395 13.8615 23.4395 13.9047C23.4866 13.9479 23.4866 14.0774 23.4866 14.1206L23.2983 14.1206L23.4866 14.1206C23.5336 14.4229 23.6748 14.6388 23.8631 14.8547C24.0514 15.0274 24.3338 15.1138 24.7574 15.1138C25.2751 15.1138 25.6987 14.941 25.887 14.6388L26.0753 14.7251L25.9341 14.7251L25.9341 14.466L26.1223 14.466L26.1694 14.6388C26.0282 14.6819 25.9341 14.6819 25.7929 14.6819C25.5575 14.6819 25.3222 14.6388 25.2281 14.466C25.0869 14.2933 24.9927 14.0774 24.9927 13.8183L24.9927 10.4069C24.9927 9.37058 24.7574 8.63649 24.3338 8.29103C23.9573 7.85922 23.2512 7.68649 22.1687 7.68649C21.2744 7.68649 20.286 7.85921 19.6271 8.11831C18.9681 8.42058 18.4974 8.8524 18.4974 9.37058C18.4974 9.58649 18.5445 9.71603 18.7328 9.88876C18.8269 9.97512 19.0152 10.0615 19.2505 10.0615C19.5329 10.0615 19.7212 10.0183 19.8624 9.88876C19.9565 9.71603 20.0977 9.58649 20.0977 9.28422C20.0977 8.93876 20.1919 8.55012 20.4743 8.29103C20.7096 8.03194 21.0861 7.94558 21.651 7.94558C22.2628 7.94558 22.7335 8.11831 23.063 8.46376C23.3454 8.80922 23.4395 9.3274 23.4395 9.97512L23.4395 10.2774C23.4395 10.4933 23.4395 10.7092 23.2512 10.7956C23.063 10.9683 22.9218 11.0115 22.6864 11.0115C20.8037 11.2706 19.6271 11.5729 18.921 12.0047C18.168 12.4365 17.9797 12.8683 17.9797 13.516L17.7914 13.516L17.7914 13.4297ZM23.2983 12.3933L23.11 12.3933L23.11 11.8319C23.11 11.6592 23.11 11.5729 23.063 11.5729C23.063 11.5297 22.9688 11.4865 22.7806 11.4865C22.7335 11.4865 22.6864 11.4865 22.5923 11.4865L22.5923 11.3138L22.5923 11.4865C21.4627 11.5729 20.8508 11.8319 20.4272 12.1774C20.0977 12.4797 19.9565 12.7819 19.9565 13.1274C19.9565 13.4729 20.0507 13.6888 20.2389 13.8615C20.4743 14.0774 20.7567 14.1638 21.1803 14.1638C22.2628 14.1638 23.063 13.4297 23.063 12.4365L23.2983 12.4365L23.4866 12.4365C23.4866 12.9979 23.2512 13.516 22.8276 13.9479C22.4511 14.2933 21.8863 14.5092 21.2273 14.5092C20.6625 14.5092 20.286 14.3365 20.0036 14.0774C19.7212 13.8183 19.6271 13.4729 19.6271 13.0842C19.6271 12.6956 19.8153 12.2638 20.2389 11.8751C20.7096 11.5297 21.4156 11.2706 22.5923 11.0979C22.6394 11.0979 22.6864 11.0979 22.7806 11.0979C23.0159 11.0979 23.2512 11.141 23.3454 11.3138C23.5336 11.4865 23.5336 11.6592 23.5336 11.8319L23.5336 12.3933L23.2983 12.3933Z" fill="#001727"/>
<path d="M27.5344 14.9841L27.5344 6.00225C27.5344 5.26816 27.2991 5.00907 26.4048 5.13861L26.4048 4.66361L28.7111 4.2318C29.2288 4.14543 29.4642 4.31816 29.4642 4.74998L29.4642 8.20452C29.4642 8.37725 29.6524 8.46361 29.8407 8.24771C30.1702 7.94543 31.1586 7.42725 32.3353 7.42725C34.3121 7.42725 35.9595 8.80907 35.9595 11.2273C35.9595 13.8182 33.9826 15.2863 32.0058 15.2863C30.4997 15.2863 29.5583 14.4227 29.0876 14.4227C28.5228 14.4227 28.2875 15.2863 27.911 15.2863C27.7227 15.2863 27.5344 15.1136 27.5344 14.9841ZM33.9826 11.9613C33.9826 10.0613 32.9472 8.54998 31.441 8.54998C30.5938 8.54998 29.4642 8.9818 29.4642 10.7091L29.4642 12.1773C29.4642 14.0341 30.8762 14.725 31.9117 14.725C33.2766 14.725 33.9826 13.6454 33.9826 11.9613Z" fill="#001727"/>
<path d="M27.5343 14.984L27.3461 14.984L27.3461 6.00223C27.3461 5.69996 27.299 5.52723 27.1578 5.44087C27.1107 5.3545 26.9225 5.26814 26.64 5.26814C26.593 5.26814 26.4518 5.26814 26.3576 5.26814L26.1223 5.31132L26.1223 4.49087L28.6639 4.05905C28.711 4.01587 28.8522 4.01587 28.8993 4.01587C29.1346 4.01587 29.2758 4.05905 29.417 4.23178C29.6053 4.40451 29.6524 4.53405 29.6524 4.74996L29.6524 8.2045L29.6053 8.24769L29.6053 8.2045L29.6994 8.2045L29.6524 8.24769L29.6524 8.2045C29.6524 8.2045 29.6994 8.2045 29.6994 8.16132L29.7465 8.16132C30.123 7.81587 31.1114 7.29769 32.3352 7.29769C33.3707 7.29769 34.312 7.64314 34.971 8.33405C35.724 9.06814 36.1006 10.0613 36.1006 11.2272C36.1006 12.5659 35.5828 13.6022 34.8768 14.3363C34.0767 15.0704 33.0883 15.4159 32.0057 15.4159C31.2056 15.4159 30.5466 15.2 30.076 14.984C29.5582 14.725 29.1817 14.5522 29.0405 14.5522C28.9463 14.5522 28.8522 14.5522 28.8051 14.6386C28.6169 14.6818 28.5227 14.8977 28.4286 15.0704C28.3345 15.1568 28.1462 15.3727 27.8638 15.3727C27.7697 15.3727 27.5814 15.3295 27.5343 15.2C27.4402 15.1568 27.3461 14.984 27.3461 14.8977L27.5343 14.8977L27.7697 14.8977C27.7697 14.9409 27.8167 14.984 27.8638 14.984C27.8638 14.984 27.9109 14.984 28.0521 14.9409C28.0991 14.8545 28.2874 14.6386 28.3815 14.4659C28.5698 14.4227 28.7581 14.25 29.0875 14.25C29.417 14.25 29.7465 14.4659 30.2172 14.6818C30.7349 14.8977 31.2997 15.1136 32.0057 15.1136C33.9355 15.1136 35.724 13.8181 35.724 11.2704C35.724 8.98178 34.2179 7.68632 32.3352 7.68632C31.2056 7.68632 30.3113 8.16132 29.9818 8.4636L29.8877 8.29087L30.076 8.4636C29.9818 8.54996 29.8406 8.63632 29.6994 8.63632C29.6053 8.63632 29.4641 8.59314 29.417 8.4636C29.37 8.42041 29.37 8.29087 29.37 8.24769L29.37 4.79314C29.37 4.62041 29.3229 4.57723 29.2758 4.53405C29.2288 4.49087 29.1817 4.44769 29.0405 4.44769C28.9934 4.44769 28.9463 4.44769 28.8522 4.44769L26.64 4.8795L26.64 5.18178L26.4047 5.18178L26.3576 4.96587C26.4518 4.96587 26.593 4.96587 26.6871 4.96587C27.0166 4.96587 27.299 5.00905 27.5343 5.22496C27.7226 5.44087 27.7697 5.74314 27.7697 6.04541L27.7697 15.0272L27.5343 15.0272L27.5343 14.984ZM33.9826 11.9613L33.7943 11.9613C33.7943 11.0113 33.5119 10.1909 33.1353 9.6295C32.6647 9.06814 32.0999 8.76587 31.4409 8.6795C31.0644 8.6795 30.5937 8.76587 30.2642 9.11132C29.9348 9.37041 29.6994 9.88859 29.6994 10.709L29.6994 12.1772C29.6994 13.0409 29.9818 13.6454 30.4525 13.9909C30.9232 14.3363 31.488 14.509 31.9116 14.509C32.5235 14.509 32.9941 14.2931 33.3236 13.8181C33.606 13.3863 33.8414 12.7386 33.8414 11.9613L33.9826 11.9613L34.2179 11.9613C34.2179 12.7818 33.9826 13.5159 33.606 14.034C33.2765 14.5522 32.6647 14.8545 31.9116 14.8545C31.3468 14.8545 30.7349 14.6818 30.2172 14.2931C29.6524 13.8181 29.3229 13.1704 29.3229 12.1772L29.3229 10.709C29.3229 9.84541 29.6053 9.19769 29.9818 8.85223C30.4525 8.50678 31.0173 8.37723 31.4409 8.37723C32.2881 8.37723 32.9471 8.80905 33.4648 9.41359C33.9355 10.1045 34.2179 10.9681 34.2179 11.9613L33.9826 11.9613Z" fill="#001727"/>
<path d="M37.7951 13.8182L37.7951 6.00225C37.7951 5.26816 37.5126 5.00907 36.6184 5.13861L36.6184 4.66361L38.9717 4.2318C39.4424 4.14543 39.7248 4.31816 39.7248 4.74998L39.7248 13.8182C39.7248 14.3795 40.0543 14.5523 40.572 14.4227L40.572 14.6818C40.3367 15.0273 39.7719 15.2432 39.2541 15.2432C38.4069 15.2863 37.7951 14.8113 37.7951 13.8182Z" fill="#001727"/>
<path d="M37.7951 13.8181L37.5597 13.8181L37.5597 6.00223C37.5597 5.69996 37.5127 5.52723 37.4656 5.44087C37.3715 5.35451 37.2303 5.26814 36.9008 5.26814C36.8537 5.26814 36.7125 5.26814 36.6655 5.26814L36.4301 5.31132L36.4301 4.49087L38.9247 4.05905C38.9718 4.01587 39.113 4.01587 39.16 4.01587C39.3954 4.01587 39.5366 4.05905 39.7248 4.23178C39.819 4.40451 39.9131 4.53405 39.9131 4.74996L39.9131 13.8181C39.9131 14.0341 39.9602 14.1204 40.0072 14.1636C40.0543 14.25 40.1014 14.25 40.2896 14.25C40.3367 14.25 40.4779 14.25 40.525 14.25L40.7133 14.25L40.7133 14.7681C40.4309 15.2863 39.819 15.4591 39.2542 15.4591C38.7835 15.4591 38.3599 15.3727 38.0775 15.0272C37.748 14.7681 37.5597 14.3363 37.5597 13.8181L37.7951 13.8181L37.9833 13.8181C37.9833 14.2931 38.1716 14.5954 38.3599 14.7681C38.5482 14.9841 38.8776 15.0704 39.2542 15.0704C39.7719 15.0704 40.1955 14.8977 40.3838 14.5954L40.5721 14.6818L40.3838 14.6818L40.3838 14.4227L40.525 14.4227L40.5721 14.5954C40.4779 14.6386 40.3367 14.6386 40.2426 14.6386C40.0072 14.6386 39.7719 14.5954 39.6778 14.4227C39.4895 14.25 39.4424 14.0772 39.4424 13.8181L39.4424 4.74996C39.4424 4.57723 39.3954 4.53405 39.3954 4.49087C39.3483 4.44769 39.3012 4.40451 39.113 4.40451C39.0659 4.40451 39.0188 4.40451 38.9247 4.40451L36.7596 4.83632L36.7596 5.1386L36.5243 5.1386L36.5243 4.92269C36.6184 4.92269 36.7596 4.92269 36.8067 4.92269C37.1832 4.92269 37.4656 4.96587 37.6539 5.18178C37.8421 5.39769 37.8892 5.69996 37.8892 6.00223L37.8892 13.8181L37.7951 13.8181Z" fill="#001727"/>
<path d="M41.6074 13.4296C41.6074 12.091 42.7841 11.2705 46.5025 10.7955C46.879 10.7523 47.0673 10.6228 47.0673 10.2342L47.0673 9.93188C47.0673 8.72279 46.5495 8.07507 45.4199 8.07507C44.3844 8.07507 44.055 8.55007 44.055 9.28416C44.055 9.97507 43.5372 10.2773 42.9724 10.2773C42.4076 10.2773 42.0781 9.93188 42.0781 9.4137C42.0781 8.11825 44.055 7.55688 45.9376 7.55688C48.1027 7.55688 48.997 8.37734 48.997 10.4932L48.997 13.8182C48.997 14.3796 49.3265 14.5523 49.8442 14.4228L49.8442 14.6819C49.6089 15.0273 49.0441 15.2432 48.5264 15.2432C47.6321 15.2432 47.1143 14.7251 47.0673 14.0342C47.0673 13.8182 46.9731 13.8182 46.7849 13.991C46.2201 14.6819 45.1846 15.2432 43.9608 15.2432C42.7371 15.2432 41.6074 14.7251 41.6074 13.4296ZM47.1143 12.3932L47.1143 11.8319C47.1143 11.4864 47.0202 11.2705 46.3613 11.3137C44.102 11.5296 43.5843 12.3501 43.5843 13.0842C43.5843 13.7751 44.055 14.3364 44.9963 14.3364C46.173 14.2932 47.1143 13.4728 47.1143 12.3932Z" fill="#001727"/>
<path d="M41.6075 13.4297L41.3721 13.4297C41.3721 12.6956 41.7016 12.091 42.5488 11.616C43.349 11.141 44.5727 10.8388 46.5025 10.5797C46.6907 10.5797 46.7849 10.5365 46.7849 10.5365C46.8319 10.4933 46.879 10.4501 46.879 10.2342L46.879 9.93194C46.879 9.37058 46.6907 8.93876 46.5025 8.67967C46.2671 8.3774 45.9377 8.24785 45.4199 8.24785C44.9493 8.24785 44.6668 8.33422 44.5256 8.50694C44.3374 8.67967 44.2432 8.93876 44.2432 9.24103C44.2432 9.58649 44.1491 9.93194 43.9138 10.1047C43.6784 10.2774 43.349 10.3638 43.0195 10.3638C42.69 10.3638 42.4076 10.2774 42.2193 10.0615C41.984 9.88876 41.9369 9.62967 41.9369 9.3274C41.9369 8.59331 42.5017 8.07512 43.2548 7.77285C44.055 7.47058 44.9963 7.29785 45.9847 7.29785C47.1143 7.29785 47.9145 7.51376 48.4793 8.03194C48.997 8.55012 49.2324 9.3274 49.2324 10.4069L49.2324 13.8183C49.2324 14.0342 49.2794 14.1206 49.3265 14.1638C49.3736 14.2501 49.5148 14.2501 49.6089 14.2501C49.656 14.2501 49.7972 14.2501 49.8443 14.2501L50.0796 14.2501L50.0796 14.7683L50.0325 14.7683C49.7501 15.2865 49.1382 15.4592 48.5734 15.4592C48.0557 15.4592 47.6792 15.2865 47.3968 15.1138C47.1143 14.8547 46.9261 14.5092 46.9261 14.1206C46.9261 14.1206 46.9261 14.1206 46.9261 14.0774L46.9261 14.1206C46.9261 14.0774 46.9261 14.0774 46.9261 14.0774L46.9261 14.1206L46.9731 14.0774L46.9731 14.1206L46.9261 14.1206L46.9731 14.0774L46.9731 14.1206L46.9731 14.0774L47.0202 14.1206C47.0202 14.1206 47.0202 14.1206 46.9731 14.1206L46.9731 14.0774L47.0202 14.1206L46.9731 14.1638L46.9731 14.2069C46.3613 14.8115 45.2787 15.4592 43.9608 15.4592C43.3019 15.4592 42.6429 15.2865 42.2193 14.9842C41.7016 14.6819 41.3721 14.1638 41.3721 13.4297L41.6075 13.4297L41.7957 13.4297C41.7957 14.0342 42.0781 14.4229 42.4547 14.6819C42.8312 14.9842 43.349 15.1138 43.9608 15.1138C45.1375 15.1138 46.1259 14.5956 46.6907 13.991L46.7849 14.0774L46.6437 13.9479C46.7378 13.8615 46.879 13.7751 46.9731 13.7751C47.0673 13.7319 47.2085 13.8183 47.2555 13.8615C47.2555 13.9047 47.3026 14.0342 47.3026 14.0774L47.1143 14.0774L47.3497 14.0774C47.3497 14.3797 47.4438 14.5956 47.6792 14.8115C47.8674 14.9842 48.1498 15.0706 48.5734 15.0706C49.0912 15.0706 49.5148 14.8979 49.7031 14.5956L49.8913 14.6819L49.7031 14.6819L49.7031 14.4229L49.8913 14.4229L49.9384 14.5956C49.8443 14.6388 49.7031 14.6388 49.6089 14.6388C49.3736 14.6388 49.1382 14.5956 49.0441 14.4229C48.8558 14.2501 48.8088 14.0774 48.8088 13.8183L48.8088 10.4069C48.8088 9.37058 48.5734 8.63649 48.1969 8.29103C47.7262 7.85922 47.0673 7.68649 45.9847 7.68649C45.0905 7.68649 44.102 7.85921 43.4431 8.11831C42.7842 8.42058 42.3135 8.8524 42.3135 9.37058C42.3135 9.58649 42.4076 9.71603 42.5488 9.88876C42.6429 9.97512 42.8312 10.0615 43.0666 10.0615C43.349 10.0615 43.5843 10.0183 43.6784 9.88876C43.8667 9.71603 43.9138 9.58649 43.9138 9.28422C43.9138 8.93876 44.0079 8.55012 44.2903 8.29103C44.5256 8.03194 44.9492 7.94558 45.467 7.94558C46.0789 7.94558 46.5495 8.11831 46.879 8.46376C47.1614 8.80922 47.2555 9.3274 47.2555 9.97512L47.2555 10.2774C47.2555 10.4933 47.2555 10.7092 47.0673 10.7956C46.9731 10.9683 46.7378 11.0115 46.5025 11.0115C44.6198 11.2706 43.4431 11.5729 42.7371 12.0047C42.0781 12.4365 41.7957 12.8683 41.7957 13.516L41.6075 13.516L41.6075 13.4297ZM47.1143 12.3933L46.9261 12.3933L46.9261 11.8319C46.9261 11.6592 46.879 11.5729 46.8319 11.5729C46.8319 11.5297 46.7849 11.4865 46.5495 11.4865C46.5025 11.4865 46.4554 11.4865 46.3613 11.4865L46.3613 11.3138L46.3613 11.4865C45.2787 11.5729 44.6198 11.8319 44.2903 12.1774C43.9138 12.4797 43.7726 12.7819 43.7726 13.1274C43.7726 13.4729 43.8667 13.6888 44.055 13.8615C44.2903 14.0774 44.5727 14.1638 44.9963 14.1638C46.0789 14.1638 46.879 13.4297 46.9261 12.4365L47.1143 12.4365L47.3026 12.4365C47.3026 12.9979 47.0673 13.516 46.6907 13.9479C46.2201 14.2933 45.6553 14.5092 45.0434 14.5092C44.5256 14.5092 44.102 14.3365 43.8196 14.0774C43.5843 13.8183 43.4431 13.4729 43.4431 13.0842C43.4431 12.6956 43.6314 12.2638 44.055 11.8751C44.5256 11.5297 45.2317 11.2706 46.4083 11.0979C46.4554 11.0979 46.5025 11.0979 46.5966 11.0979C46.879 11.0979 47.0673 11.141 47.2085 11.3138C47.3026 11.4865 47.3026 11.6592 47.3026 11.8319L47.3026 12.3933L47.1143 12.3933Z" fill="#001727"/>
<path d="M11.1549 30.4863L0.0470044 30.4863L0.0470047 23.3181L1.41196 23.3181L1.41196 29.1908L11.1549 29.1908L11.1549 30.4863Z" fill="#FFFA52"/>
<path d="M10.8255 25.0454L10.1666 25.0454C10.2607 26.1681 10.3549 27.8954 10.3549 29.7954C10.3549 31.6954 10.3078 33.4227 10.1666 34.6318L10.8255 34.6318C10.8255 34.6318 11.9081 31.0045 15.344 30.0545L15.344 29.7954L15.344 29.5795C11.9081 28.5863 10.8255 25.0454 10.8255 25.0454Z" fill="#FFFA52"/>
<path d="M25.84 33.3362L28.3345 33.3362L28.3345 29.0612L33.1354 29.0612L33.1354 27.2476L28.3345 27.2476L28.3345 24.3544L33.6061 24.3544L33.6061 22.4976L25.84 22.4976L25.84 33.3362Z" fill="#001727"/>
<path d="M36.5242 30.8751C36.5242 30.3137 36.9949 29.9251 37.8892 29.8819L39.6777 29.7955L39.6777 30.3569C39.6777 31.1773 38.9247 31.8251 37.8892 31.8251C37.042 31.8251 36.5242 31.5228 36.5242 30.8751ZM37.089 33.4228C38.2187 33.4228 39.16 32.9478 39.6777 32.1273L39.6777 33.3364L42.1252 33.3364L42.1252 27.8092C42.1252 26.1683 40.6662 25.1319 38.4069 25.1319C36.1006 25.1319 34.6886 26.1682 34.5474 27.6796L34.5474 27.766L36.7125 27.766L36.7596 27.6796C36.8537 27.1614 37.3714 26.816 38.2657 26.816C39.16 26.816 39.6777 27.2478 39.6777 27.9387L39.6777 28.4569L37.5126 28.5432C35.3475 28.6296 34.1238 29.5364 34.1238 30.9614C34.1709 32.4296 35.3475 33.4228 37.089 33.4228ZM38.9247 24.3546L40.9486 21.8069L38.7835 21.8069L37.3244 24.3546L38.9247 24.3546Z" fill="#001727"/>
<path d="M47.6792 33.4659C49.9855 33.4659 51.5387 32.1273 51.6328 30.3568L49.3736 30.3568L49.3736 30.4C49.1853 31.1773 48.6205 31.7386 47.6792 31.7386C46.5025 31.7386 45.7494 30.875 45.7494 29.2341C45.7494 27.7227 46.5025 26.8159 47.6792 26.8159C48.6205 26.8159 49.1853 27.3773 49.3736 28.1545L49.3736 28.1977L51.6328 28.1977L51.6328 28.1545C51.5387 26.4273 49.9855 25.0886 47.6321 25.0886C45.0434 25.0886 43.349 26.6432 43.349 29.2341C43.349 31.825 44.9492 33.4659 47.6792 33.4659Z" fill="#001727"/>
<path d="M52.8096 33.3363L55.163 33.3363L55.163 25.3045L52.8096 25.3045L52.8096 33.3363ZM53.9863 24.2682C54.7394 24.2682 55.3042 23.75 55.3042 23.1454C55.3042 22.5409 54.7394 22.0227 53.9863 22.0227C53.2332 22.0227 52.7626 22.5409 52.7626 23.1454C52.7626 23.75 53.2332 24.2682 53.9863 24.2682Z" fill="#001727"/>
<path d="M59.2578 33.3362L59.2578 22.4976L56.8103 22.4976L56.8103 33.3362L59.2578 33.3362Z" fill="#001727"/>
</svg>
